M48
; DRILL file {KiCad 8.0.2} date 2024-08-21T19:43:40+0200
; FORMAT={-:-/ absolute / metric / decimal}
; #@! TF.CreationDate,2024-08-21T19:43:40+02:00
; #@! TF.GenerationSoftware,Kicad,Pcbnew,8.0.2
; #@! TF.FileFunction,MixedPlating,1,2
FMAT,2
METRIC
; #@! TA.AperFunction,Plated,PTH,ViaDrill
T1C0.300
; #@! TA.AperFunction,Plated,PTH,ComponentDrill
T2C0.550
; #@! TA.AperFunction,Plated,PTH,ComponentDrill
T3C0.750
; #@! TA.AperFunction,Plated,PTH,ComponentDrill
T4C0.850
; #@! TA.AperFunction,Plated,PTH,ComponentDrill
T5C1.000
; #@! TA.AperFunction,NonPlated,NPTH,ComponentDrill
T6C0.800
; #@! TA.AperFunction,NonPlated,NPTH,ComponentDrill
T7C0.900
; #@! TA.AperFunction,NonPlated,NPTH,ComponentDrill
T8C1.150
; #@! TA.AperFunction,NonPlated,NPTH,ComponentDrill
T9C2.200
%
G90
G05
T1
X155.0Y-110.5
X157.5Y-125.5
X158.5Y-121.0
X159.5Y-127.0
X159.5Y-128.5
X162.0Y-109.0
X162.755Y-121.745
X163.5Y-118.0
X167.5Y-124.0
X168.0Y-129.5
X168.5Y-115.0
X171.5Y-130.0
X172.0Y-109.0
X175.0Y-133.0
X176.0Y-117.5
X176.0Y-130.0
X177.0Y-121.5
X182.0Y-122.0
X182.5Y-120.5
X184.0Y-119.5
X185.0Y-109.5
X185.0Y-119.5
X186.0Y-126.0
X186.5Y-120.5
X187.5Y-120.5
X189.5Y-110.0
X189.5Y-111.0
X190.5Y-121.5
T3
X179.45Y-128.65
X180.95Y-132.35
X182.45Y-128.65
X183.95Y-132.35
X185.45Y-128.65
T5
X162.38Y-106.655
X164.7Y-134.0
X164.92Y-106.655
X167.24Y-134.0
X167.46Y-106.655
X169.78Y-134.0
X170.0Y-106.655
X172.32Y-134.0
X175.92Y-106.5
X178.46Y-106.5
X181.0Y-106.5
X183.54Y-106.5
T6
X193.75Y-119.875
X193.75Y-124.875
T7
X151.89Y-111.5
X151.89Y-114.5
T8
X177.9Y-130.5
X187.0Y-130.5
T9
X151.5Y-106.0
X151.5Y-135.0
X196.5Y-106.0
X196.5Y-135.0
T2
G00X196.175Y-118.5
M15
G01X196.825Y-118.5
M16
G05
G00X196.175Y-126.25
M15
G01X196.825Y-126.25
M16
G05
T4
G00X192.425Y-118.65
M15
G01X192.975Y-118.65
M16
G05
G00X192.425Y-126.1
M15
G01X192.975Y-126.1
M16
G05
M30
